<?xml version="1.0" encoding="utf-8"?>
<!-- Generator: Adobe Illustrator 24.1.2, SVG Export Plug-In . SVG Version: 6.00 Build 0)  -->
<svg version="1.1" id="Camada_1" xmlns="http://www.w3.org/2000/svg" xmlns:xlink="http://www.w3.org/1999/xlink" x="0px" y="0px"
	 viewBox="0 0 1080 1080" style="enable-background:new 0 0 1080 1080;" xml:space="preserve">
<style type="text/css">
	.st0{fill:none;stroke:#FF55BE;stroke-miterlimit:10;}
	.st1{fill:#FCFCFC;}
</style>
<path class="st0" d="M-922.8,1041.5C-922.8,1041.5-922.8,1041.5-922.8,1041.5C-922.8,1041.6-922.8,1041.6-922.8,1041.5"/>
<path class="st1" d="M678.5,19.8c-10.5-4.2-21.1-7.6-31.8-10.4c0,0,0,0,0,0C588.3-0.6,529.3,3.6,473.2,24c-5,1.8-9.9,3.7-14.8,5.8
	l0,0c-57.1,26.2-110,69.7-151.9,126.7c0,0-0.1,0.1-0.1,0.1c0,0,0,0,0,0c-65,95.2-94.1,225.5-78.9,363.8c0,0,0,0,0,0
	c3.9,35.7,10.8,71.9,20.8,108.2c5.1,18.8,11.1,37.6,18,56.3C347,906.6,522.4,1056.8,699,1075.8c5.2-72-9.1-150.1-45.3-224.4
	c-22-45.2-50-84.8-82.1-118c104.6-31.1,201.3-119.9,251.5-244.9C901.5,293.1,836.7,83.3,678.5,19.8z M748.3,462.6
	C684.6,599.1,543.4,668,432.8,616.5c-110.6-51.5-148.7-204-85.1-340.5c63.6-136.5,204.8-205.4,315.4-153.9S811.9,326.1,748.3,462.6z
	"/>
</svg>
